<mxfile host="app.diagrams.net" modified="2023-11-12T07:02:40.315Z" agent="Mozilla/5.0 (Macintosh; Intel Mac OS X 10_15_7) AppleWebKit/537.36 (KHTML, like Gecko) Chrome/118.0.0.0 Safari/537.36" etag="dY8IFw4fu4frOyT3P1kW" version="22.1.0" type="github">
  <diagram name="第 1 页" id="11swta3kaPDLS0aJfWKF">
    <mxGraphModel dx="784" dy="1156" grid="1" gridSize="10" guides="1" tooltips="1" connect="1" arrows="1" fold="1" page="1" pageScale="1" pageWidth="827" pageHeight="1169" math="0" shadow="0">
      <root>
        <mxCell id="0" />
        <mxCell id="1" parent="0" />
        <mxCell id="coak4n4l8vl19FhMBkoU-1" value="移动端 H5 架构处理请求流程-1" style="swimlane;childLayout=stackLayout;resizeParent=1;resizeParentMax=0;startSize=20;html=1;" vertex="1" parent="1">
          <mxGeometry x="150" y="50" width="430" height="1240" as="geometry" />
        </mxCell>
        <mxCell id="coak4n4l8vl19FhMBkoU-2" value="Client" style="swimlane;startSize=20;html=1;" vertex="1" parent="coak4n4l8vl19FhMBkoU-1">
          <mxGeometry y="20" width="230" height="1220" as="geometry" />
        </mxCell>
        <mxCell id="coak4n4l8vl19FhMBkoU-3" value="" style="edgeStyle=orthogonalEdgeStyle;rounded=0;orthogonalLoop=1;jettySize=auto;html=1;" edge="1" parent="coak4n4l8vl19FhMBkoU-2" source="coak4n4l8vl19FhMBkoU-4" target="coak4n4l8vl19FhMBkoU-5">
          <mxGeometry relative="1" as="geometry" />
        </mxCell>
        <mxCell id="coak4n4l8vl19FhMBkoU-4" value="1.用户在移动设备上访问 H5 页面，通过浏览器加载页面" style="rounded=0;whiteSpace=wrap;html=1;" vertex="1" parent="coak4n4l8vl19FhMBkoU-2">
          <mxGeometry x="32.5" y="40" width="105" height="60" as="geometry" />
        </mxCell>
        <mxCell id="coak4n4l8vl19FhMBkoU-5" value="2.浏览器发起网络请求" style="rounded=0;whiteSpace=wrap;html=1;" vertex="1" parent="coak4n4l8vl19FhMBkoU-2">
          <mxGeometry x="33" y="180" width="105" height="60" as="geometry" />
        </mxCell>
        <mxCell id="coak4n4l8vl19FhMBkoU-6" value="" style="edgeStyle=orthogonalEdgeStyle;rounded=0;orthogonalLoop=1;jettySize=auto;html=1;" edge="1" parent="coak4n4l8vl19FhMBkoU-2" source="coak4n4l8vl19FhMBkoU-7" target="coak4n4l8vl19FhMBkoU-8">
          <mxGeometry relative="1" as="geometry" />
        </mxCell>
        <mxCell id="coak4n4l8vl19FhMBkoU-7" value="7.客户端处理响应" style="rounded=0;whiteSpace=wrap;html=1;" vertex="1" parent="coak4n4l8vl19FhMBkoU-2">
          <mxGeometry x="33" y="700" width="105" height="60" as="geometry" />
        </mxCell>
        <mxCell id="coak4n4l8vl19FhMBkoU-23" value="" style="edgeStyle=orthogonalEdgeStyle;rounded=0;orthogonalLoop=1;jettySize=auto;html=1;" edge="1" parent="coak4n4l8vl19FhMBkoU-2" source="coak4n4l8vl19FhMBkoU-8" target="coak4n4l8vl19FhMBkoU-22">
          <mxGeometry relative="1" as="geometry" />
        </mxCell>
        <mxCell id="coak4n4l8vl19FhMBkoU-8" value="8.渲染界面" style="rounded=0;whiteSpace=wrap;html=1;" vertex="1" parent="coak4n4l8vl19FhMBkoU-2">
          <mxGeometry x="32.5" y="840" width="105" height="60" as="geometry" />
        </mxCell>
        <mxCell id="coak4n4l8vl19FhMBkoU-21" value="通过 HTTP 协议请求通信" style="text;html=1;align=center;verticalAlign=middle;resizable=0;points=[];autosize=1;strokeColor=none;fillColor=none;" vertex="1" parent="coak4n4l8vl19FhMBkoU-2">
          <mxGeometry x="150" y="640" width="160" height="30" as="geometry" />
        </mxCell>
        <mxCell id="coak4n4l8vl19FhMBkoU-22" value="9.加载 JS 资源" style="rounded=0;whiteSpace=wrap;html=1;" vertex="1" parent="coak4n4l8vl19FhMBkoU-2">
          <mxGeometry x="32.5" y="980" width="105" height="60" as="geometry" />
        </mxCell>
        <mxCell id="coak4n4l8vl19FhMBkoU-9" value="Server" style="swimlane;startSize=20;html=1;" vertex="1" parent="coak4n4l8vl19FhMBkoU-1">
          <mxGeometry x="230" y="20" width="200" height="1220" as="geometry" />
        </mxCell>
        <mxCell id="coak4n4l8vl19FhMBkoU-10" value="" style="edgeStyle=orthogonalEdgeStyle;rounded=0;orthogonalLoop=1;jettySize=auto;html=1;" edge="1" parent="coak4n4l8vl19FhMBkoU-9" source="coak4n4l8vl19FhMBkoU-11" target="coak4n4l8vl19FhMBkoU-14">
          <mxGeometry relative="1" as="geometry" />
        </mxCell>
        <mxCell id="coak4n4l8vl19FhMBkoU-11" value="3.服务器接收请求" style="rounded=0;whiteSpace=wrap;html=1;" vertex="1" parent="coak4n4l8vl19FhMBkoU-9">
          <mxGeometry x="70" y="180" width="105" height="60" as="geometry" />
        </mxCell>
        <mxCell id="coak4n4l8vl19FhMBkoU-12" value="通过 HTTP 协议请求通信" style="text;html=1;align=center;verticalAlign=middle;resizable=0;points=[];autosize=1;strokeColor=none;fillColor=none;" vertex="1" parent="coak4n4l8vl19FhMBkoU-9">
          <mxGeometry x="-85" y="210" width="160" height="30" as="geometry" />
        </mxCell>
        <mxCell id="coak4n4l8vl19FhMBkoU-13" value="" style="edgeStyle=orthogonalEdgeStyle;rounded=0;orthogonalLoop=1;jettySize=auto;html=1;" edge="1" parent="coak4n4l8vl19FhMBkoU-9" source="coak4n4l8vl19FhMBkoU-14" target="coak4n4l8vl19FhMBkoU-16">
          <mxGeometry relative="1" as="geometry" />
        </mxCell>
        <mxCell id="coak4n4l8vl19FhMBkoU-14" value="4.中间件处理请求" style="rounded=0;whiteSpace=wrap;html=1;" vertex="1" parent="coak4n4l8vl19FhMBkoU-9">
          <mxGeometry x="70" y="320" width="105" height="60" as="geometry" />
        </mxCell>
        <mxCell id="coak4n4l8vl19FhMBkoU-15" value="" style="edgeStyle=orthogonalEdgeStyle;rounded=0;orthogonalLoop=1;jettySize=auto;html=1;" edge="1" parent="coak4n4l8vl19FhMBkoU-9" source="coak4n4l8vl19FhMBkoU-16" target="coak4n4l8vl19FhMBkoU-18">
          <mxGeometry relative="1" as="geometry" />
        </mxCell>
        <mxCell id="coak4n4l8vl19FhMBkoU-16" value="5.业务逻辑处理" style="rounded=0;whiteSpace=wrap;html=1;" vertex="1" parent="coak4n4l8vl19FhMBkoU-9">
          <mxGeometry x="70" y="460" width="105" height="60" as="geometry" />
        </mxCell>
        <mxCell id="coak4n4l8vl19FhMBkoU-18" value="6.生成响应" style="rounded=0;whiteSpace=wrap;html=1;" vertex="1" parent="coak4n4l8vl19FhMBkoU-9">
          <mxGeometry x="70" y="600" width="105" height="60" as="geometry" />
        </mxCell>
        <mxCell id="coak4n4l8vl19FhMBkoU-19" value="" style="edgeStyle=orthogonalEdgeStyle;rounded=0;orthogonalLoop=1;jettySize=auto;html=1;" edge="1" parent="coak4n4l8vl19FhMBkoU-1" source="coak4n4l8vl19FhMBkoU-5" target="coak4n4l8vl19FhMBkoU-11">
          <mxGeometry relative="1" as="geometry" />
        </mxCell>
        <mxCell id="coak4n4l8vl19FhMBkoU-20" value="" style="edgeStyle=orthogonalEdgeStyle;rounded=0;orthogonalLoop=1;jettySize=auto;html=1;" edge="1" parent="coak4n4l8vl19FhMBkoU-1" source="coak4n4l8vl19FhMBkoU-18" target="coak4n4l8vl19FhMBkoU-7">
          <mxGeometry relative="1" as="geometry">
            <mxPoint x="220" y="650" as="targetPoint" />
          </mxGeometry>
        </mxCell>
        <mxCell id="coak4n4l8vl19FhMBkoU-24" value="10.渲染完毕" style="rounded=0;whiteSpace=wrap;html=1;" vertex="1" parent="1">
          <mxGeometry x="182.5" y="1190" width="105" height="60" as="geometry" />
        </mxCell>
        <mxCell id="coak4n4l8vl19FhMBkoU-25" value="" style="edgeStyle=orthogonalEdgeStyle;rounded=0;orthogonalLoop=1;jettySize=auto;html=1;" edge="1" parent="1" source="coak4n4l8vl19FhMBkoU-22" target="coak4n4l8vl19FhMBkoU-24">
          <mxGeometry relative="1" as="geometry" />
        </mxCell>
      </root>
    </mxGraphModel>
  </diagram>
</mxfile>
